<svg width="30" height="30" viewBox="0 0 30 30" fill="none" xmlns="http://www.w3.org/2000/svg">
<g id="Star">
<path id="Vector" d="M27.4805 13.4039L22.1953 18.0164L23.7785 24.8836C23.8623 25.2426 23.8384 25.6183 23.7098 25.9638C23.5812 26.3093 23.3536 26.6092 23.0555 26.826C22.7574 27.0429 22.4019 27.167 22.0336 27.1829C21.6653 27.1989 21.3005 27.1059 20.9848 26.9156L14.9953 23.2828L9.01875 26.9156C8.70301 27.1059 8.33819 27.1989 7.96989 27.1829C7.60159 27.167 7.24616 27.0429 6.94804 26.826C6.64992 26.6092 6.42233 26.3093 6.29373 25.9638C6.16513 25.6183 6.14122 25.2426 6.225 24.8836L7.80586 18.0234L2.51953 13.4039C2.23993 13.1628 2.03775 12.8444 1.93835 12.4888C1.83894 12.1332 1.84673 11.7562 1.96075 11.405C2.07476 11.0539 2.28992 10.7442 2.57925 10.5148C2.86857 10.2854 3.21918 10.1465 3.58711 10.1156L10.5551 9.5121L13.275 3.0246C13.417 2.68419 13.6566 2.39342 13.9636 2.18889C14.2705 1.98436 14.6311 1.87523 15 1.87523C15.3689 1.87523 15.7295 1.98436 16.0364 2.18889C16.3434 2.39342 16.583 2.68419 16.725 3.0246L19.4531 9.5121L26.4187 10.1156C26.7867 10.1465 27.1373 10.2854 27.4266 10.5148C27.7159 10.7442 27.9311 11.0539 28.0451 11.405C28.1591 11.7562 28.1669 12.1332 28.0675 12.4888C27.9681 12.8444 27.7659 13.1628 27.4863 13.4039H27.4805Z" fill="#8591FF"/>
</g>
</svg>
